<?xml version="1.0" encoding="utf-8"?>
<!-- Generator: Adobe Illustrator 19.0.0, SVG Export Plug-In . SVG Version: 6.00 Build 0)  -->
<svg version="1.1" id="Layer_1" xmlns="http://www.w3.org/2000/svg" xmlns:xlink="http://www.w3.org/1999/xlink" x="0px" y="0px"
	 width="492px" height="492px" viewBox="-53 155 492 492" style="enable-background:new -53 155 492 492;" xml:space="preserve">
<g>
	<g>
		<path d="M56.3,420.2l218.9,218.9c5.1,5.1,11.8,7.9,19,7.9s14-2.8,19-7.9l16.1-16.1c10.5-10.5,10.5-27.6,0-38.1L145.6,401.1
			L329.7,217c5.1-5.1,7.9-11.8,7.9-19c0-7.2-2.8-14-7.9-19l-16.1-16.1c-5.1-5.1-11.8-7.9-19-7.9s-14,2.8-19,7.9L56.3,382
			c-5.1,5.1-7.9,11.9-7.8,19.1C48.5,408.3,51.3,415.1,56.3,420.2z"/>
	</g>
</g>
</svg>
