<?xml version="1.0" encoding="utf-8"?>
<!-- Generator: Adobe Illustrator 19.0.0, SVG Export Plug-In . SVG Version: 6.00 Build 0)  -->
<svg version="1.1" id="Layer_1" xmlns="http://www.w3.org/2000/svg" xmlns:xlink="http://www.w3.org/1999/xlink" x="0px" y="0px"
	 width="492px" height="492px" viewBox="-53 155 492 492" style="enable-background:new -53 155 492 492;" xml:space="preserve">
<g>
	<g>
		<path d="M314.8,381.8L95.9,162.9c-5.1-5.1-11.8-7.9-19-7.9s-14,2.8-19,7.9L41.8,179c-10.5,10.5-10.5,27.6,0,38.1l183.7,183.8
			L41.4,585c-5.1,5.1-7.9,11.8-7.9,19s2.8,14,7.9,19l16.1,16.1c5.1,5.1,11.8,7.9,19,7.9s14-2.8,19-7.9L314.8,420
			c5.1-5.1,7.9-11.9,7.8-19.1C322.6,393.7,319.8,386.9,314.8,381.8z"/>
	</g>
</g>
</svg>
