<?xml version="1.0" encoding="utf-8"?>
<!-- Generator: Adobe Illustrator 19.0.0, SVG Export Plug-In . SVG Version: 6.00 Build 0)  -->
<svg version="1.1" id="Capa_1" xmlns="http://www.w3.org/2000/svg" xmlns:xlink="http://www.w3.org/1999/xlink" x="0px" y="0px"
	 width="512px" height="512px" viewBox="-43 145 512 512" style="enable-background:new -43 145 512 512;" xml:space="preserve">
<style type="text/css">
	.st0{fill:#F9F9F9;}
</style>
<path class="st0" d="M332.7,475.5C357.9,441.1,373,398.8,373,353c0-114.7-93.3-208-208-208S-43,238.3-43,353s93.3,208,208,208
	c45.8,0,88.1-15.1,122.5-40.3L423.8,657l45.2-45.2C469,611.7,332.7,475.5,332.7,475.5L332.7,475.5z M165,497
	c-79.4,0-144-64.6-144-144s64.6-144,144-144s144,64.6,144,144S244.4,497,165,497L165,497z"/>
</svg>
